<svg width="32" height="32" viewBox="0 0 32 32" fill="none" xmlns="http://www.w3.org/2000/svg">
<path d="M6.74 4.3275C6.64628 4.22436 6.53204 4.14195 6.40461 4.08555C6.27717 4.02915 6.13936 4.00001 6 4C5.46957 4 4.96086 4.21071 4.58579 4.58579C4.21071 4.96086 4 5.46957 4 6V26C4 26.5304 4.21071 27.0391 4.58579 27.4142C4.96086 27.7893 5.46957 28 6 28H26C26.1937 28 26.3832 27.9437 26.5456 27.838C26.7079 27.7323 26.836 27.5818 26.9144 27.4046C26.9928 27.2275 27.018 27.0314 26.987 26.8402C26.9561 26.649 26.8703 26.4709 26.74 26.3275L6.74 4.3275ZM9.19375 10H6V6.485L9.19375 10ZM6 26V12H11.0125L23.74 26H6ZM28 6V22.1537C28 22.419 27.8946 22.6733 27.7071 22.8609C27.5196 23.0484 27.2652 23.1537 27 23.1537C26.7348 23.1537 26.4804 23.0484 26.2929 22.8609C26.1054 22.6733 26 22.419 26 22.1537V12H16.86C16.5948 12 16.3404 11.8946 16.1529 11.7071C15.9654 11.5196 15.86 11.2652 15.86 11C15.86 10.7348 15.9654 10.4804 16.1529 10.2929C16.3404 10.1054 16.5948 10 16.86 10H26V6H23V7C23 7.26522 22.8946 7.51957 22.7071 7.70711C22.5196 7.89464 22.2652 8 22 8C21.7348 8 21.4804 7.89464 21.2929 7.70711C21.1054 7.51957 21 7.26522 21 7V6H11.4062C11.141 6 10.8867 5.89464 10.6991 5.70711C10.5116 5.51957 10.4062 5.26522 10.4062 5C10.4062 4.73478 10.5116 4.48043 10.6991 4.29289C10.8867 4.10536 11.141 4 11.4062 4H21V3C21 2.73478 21.1054 2.48043 21.2929 2.29289C21.4804 2.10536 21.7348 2 22 2C22.2652 2 22.5196 2.10536 22.7071 2.29289C22.8946 2.48043 23 2.73478 23 3V4H26C26.5304 4 27.0391 4.21071 27.4142 4.58579C27.7893 4.96086 28 5.46957 28 6Z" fill="#001ECC"/>
</svg>
