<svg width="32" height="32" viewBox="0 0 32 32" fill="none" xmlns="http://www.w3.org/2000/svg">
<path d="M31 16C31 16.2652 30.8946 16.5196 30.7071 16.7071C30.5196 16.8946 30.2652 17 30 17H26.955C26.8472 18.2096 26.5375 19.3927 26.0387 20.5C25.9599 20.6761 25.8318 20.8256 25.6699 20.9305C25.508 21.0354 25.3192 21.0912 25.1262 21.0912C24.9852 21.0912 24.8458 21.0609 24.7175 21.0025C24.4762 20.8934 24.288 20.693 24.1943 20.4453C24.1005 20.1976 24.1089 19.9228 24.2175 19.6812C24.9321 18.0827 25.1652 16.3106 24.8884 14.5816C24.6117 12.8527 23.837 11.2418 22.6592 9.94624C21.4813 8.65063 19.9514 7.7264 18.2566 7.28662C16.5617 6.84683 14.7754 6.91056 13.1163 7.47C12.991 7.51595 12.8578 7.53636 12.7245 7.53003C12.5912 7.52371 12.4606 7.49078 12.3402 7.43317C12.2198 7.37557 12.1122 7.29447 12.0237 7.19464C11.9352 7.0948 11.8675 6.97826 11.8247 6.85188C11.7819 6.7255 11.7649 6.59184 11.7745 6.45876C11.7842 6.32568 11.8204 6.19588 11.881 6.077C11.9416 5.95812 12.0254 5.85258 12.1274 5.76658C12.2294 5.68058 12.3476 5.61587 12.475 5.57625C13.2927 5.30026 14.1403 5.12234 15 5.04625V2C15 1.73478 15.1054 1.48043 15.2929 1.29289C15.4804 1.10536 15.7348 1 16 1C16.2652 1 16.5196 1.10536 16.7071 1.29289C16.8946 1.48043 17 1.73478 17 2V5.04625C19.5599 5.28325 21.9562 6.40808 23.7741 8.22592C25.5919 10.0438 26.7167 12.4401 26.9538 15H30C30.2652 15 30.5196 15.1054 30.7071 15.2929C30.8946 15.4804 31 15.7348 31 16ZM26.74 26.3275C26.8302 26.4244 26.9002 26.5381 26.9461 26.6623C26.9919 26.7864 27.0127 26.9184 27.0072 27.0506C27.0017 27.1828 26.97 27.3126 26.9139 27.4325C26.8578 27.5524 26.7785 27.6599 26.6806 27.7489C26.5827 27.8379 26.4681 27.9066 26.3434 27.951C26.2187 27.9953 26.0865 28.0145 25.9543 28.0074C25.8222 28.0003 25.6928 27.9671 25.5736 27.9096C25.4544 27.8521 25.3478 27.7715 25.26 27.6725L22.625 24.7787C20.9903 26.0154 19.0415 26.769 17 26.9538V30C17 30.2652 16.8946 30.5196 16.7071 30.7071C16.5196 30.8946 16.2652 31 16 31C15.7348 31 15.4804 30.8946 15.2929 30.7071C15.1054 30.5196 15 30.2652 15 30V26.9538C12.4401 26.7167 10.0438 25.5919 8.22592 23.7741C6.40808 21.9562 5.28325 19.5599 5.04625 17H2C1.73478 17 1.48043 16.8946 1.29289 16.7071C1.10536 16.5196 1 16.2652 1 16C1 15.7348 1.10536 15.4804 1.29289 15.2929C1.48043 15.1054 1.73478 15 2 15H5.04625C5.26819 12.6028 6.26771 10.3439 7.8925 8.5675L5.26 5.6725C5.16983 5.57564 5.09979 5.46185 5.05392 5.33772C5.00806 5.2136 4.98728 5.0816 4.99281 4.94938C4.99833 4.81717 5.03004 4.68736 5.0861 4.56749C5.14216 4.44762 5.22146 4.34007 5.31939 4.25107C5.41732 4.16208 5.53194 4.0934 5.65661 4.04902C5.78128 4.00465 5.91352 3.98546 6.04566 3.99257C6.1778 3.99968 6.30721 4.03294 6.4264 4.09044C6.54559 4.14793 6.65218 4.22851 6.74 4.3275L26.74 26.3275ZM21.275 23.29L9.25 10.0562C7.797 11.7189 7.00595 13.8577 7.02734 16.0657C7.04874 18.2737 7.88109 20.3968 9.36604 22.031C10.851 23.6652 12.8849 24.6965 15.0807 24.9286C17.2766 25.1608 19.4812 24.5776 21.275 23.29Z" fill="#001ECC"/>
</svg>
